<svg width="30" height="22" viewBox="0 0 30 22" fill="none" xmlns="http://www.w3.org/2000/svg">
<path d="M29.7903 0.378924C29.7939 0.353952 29.7837 0.329221 29.7639 0.314333C29.7443 0.299207 29.7181 0.296325 29.6956 0.30665C28.4873 0.847139 28.4704 1.57345 28.5077 1.82823C28.4467 1.91419 28.3825 1.99679 28.3181 2.07602V2.07578C28.336 1.90314 28.336 1.72882 28.3181 1.55619C28.3046 1.494 28.298 1.43037 28.2978 1.36674C28.2971 1.35161 28.2876 1.33841 28.2734 1.33312C28.2595 1.32784 28.2437 1.33168 28.2335 1.34273C28.0296 1.66231 27.9623 2.0525 28.0473 2.42346C27.9729 2.51302 27.895 2.59898 27.8138 2.68854C27.8223 2.50318 27.8041 2.31782 27.7597 2.13773C27.7354 2.01792 27.7274 1.89498 27.7359 1.77301C27.7352 1.76028 27.7267 1.74924 27.7146 1.74563C27.7028 1.74179 27.6896 1.74587 27.6818 1.75572C27.4698 2.15934 27.3881 2.62057 27.4483 3.07415L27.1301 3.38389C27.1598 3.1553 27.1598 2.92384 27.1301 2.69551C27.1157 2.50414 27.1157 2.31181 27.1301 2.12068C27.127 2.113 27.1197 2.1082 27.1114 2.1082C27.1034 2.1082 27.0961 2.113 27.093 2.12068C26.7762 2.61099 26.6461 3.20216 26.7273 3.78321L26.3887 4.0723H26.389C26.4503 3.73087 26.4503 3.38103 26.389 3.03958C26.3698 2.84053 26.3698 2.6398 26.389 2.44074C26.389 2.44074 26.372 2.41673 26.3618 2.44074C25.7154 3.12912 25.8542 4.14458 25.9184 4.45788C25.7662 4.57481 25.6103 4.68863 25.4514 4.8022V4.80196C25.5131 4.37049 25.5131 3.93231 25.4514 3.5008C25.4314 3.29143 25.4429 3.08037 25.4852 2.87438C25.4871 2.86382 25.4819 2.85349 25.4725 2.84869C25.463 2.84389 25.4517 2.84605 25.4446 2.85373C24.9807 3.52054 24.8045 4.35128 24.9573 5.15325C24.7982 5.25986 24.6187 5.36671 24.4665 5.46996C24.5019 5.01159 24.5019 4.55132 24.4665 4.09295C24.4448 3.77384 24.4641 3.45331 24.5241 3.13945C23.898 3.87345 23.6735 4.87667 23.9249 5.81405C23.698 5.94828 23.468 6.0825 23.248 6.21C23.372 5.6455 23.413 5.0654 23.3698 4.48889C23.3538 4.12872 23.3809 3.76805 23.4511 3.41486C23.4511 3.41486 23.4511 3.39085 23.4239 3.41486C22.3816 4.56812 22.5608 6.13771 22.6318 6.56104C22.3948 6.6883 22.158 6.81243 21.9144 6.93273H21.9146C22.0518 6.3704 22.1063 5.79053 22.077 5.21162C22.0735 4.76406 22.111 4.31696 22.1887 3.87611C22.1915 3.85618 22.1809 3.83673 22.1627 3.82856C22.1446 3.82064 22.1233 3.82592 22.1108 3.84177C21.3971 4.83294 21.0845 6.0652 21.2375 7.28398L20.5606 7.6283V7.62806C20.6801 6.95505 20.7177 6.26931 20.6723 5.58689C20.6268 5.1559 20.6381 4.72056 20.7063 4.29268C20.7103 4.26555 20.6966 4.23914 20.6726 4.22713C20.6485 4.21537 20.6194 4.22089 20.6013 4.24106C19.6434 5.4253 19.7145 7.30125 19.7619 7.87942L19.0478 8.20308V8.20284C19.171 7.5058 19.2053 6.79535 19.1493 6.08939C19.1163 5.595 19.1252 5.0987 19.1765 4.60573C19.1795 4.57259 19.1611 4.5409 19.1307 4.52818C19.1002 4.51545 19.065 4.52457 19.0445 4.55075C18.029 5.98615 18.1374 7.94827 18.2085 8.57113L17.342 8.94979C17.5588 7.97232 17.4773 6.88433 17.4773 6.01345V6.01369C17.4693 5.6204 17.4976 5.22758 17.5618 4.83978C17.5647 4.81817 17.554 4.79728 17.5349 4.78743C17.516 4.77735 17.4931 4.78047 17.4773 4.79512C16.3299 5.98268 16.3875 8.53674 16.4416 9.34234L15.487 9.76902C15.8256 8.58477 15.5817 7.29062 15.5446 6.35778C15.5114 5.92534 15.5343 5.49004 15.6124 5.06357H15.5888C14.0488 6.48527 14.2351 9.59014 14.3094 10.3232C13.9439 10.4953 13.5818 10.6675 13.2229 10.843C13.5034 9.66286 13.5735 8.44094 13.4292 7.23555C13.3591 6.71763 13.349 6.19299 13.3988 5.67266C13.4016 5.65033 13.3898 5.62872 13.3697 5.61911C13.3497 5.60975 13.3258 5.61479 13.3107 5.63136C11.6963 7.51431 12.1059 10.5159 12.2448 11.3179L11.9366 11.4831C11.5981 11.6586 11.2801 11.8445 10.9552 12.0373V12.0375C11.3424 10.77 11.4225 9.42609 11.1887 8.12014C11.1056 7.41037 11.1021 6.69316 11.1786 5.98271C11.1807 5.9539 11.1639 5.92701 11.1373 5.91668C11.1108 5.90636 11.0808 5.915 11.0634 5.93781C9.05968 8.43686 9.87537 11.3938 10.2918 12.454C9.81466 12.7571 9.34743 13.0771 8.89389 13.4042C9.19703 12.1112 9.25558 10.7714 9.06648 9.45606C8.91656 8.46323 8.85989 7.4581 8.8972 6.45445C8.90121 6.42012 8.8828 6.38722 8.85187 6.37282C8.82094 6.35865 8.78458 6.36657 8.76192 6.39251C6.39275 8.83992 7.61453 13.1325 7.9394 14.1166C7.45871 14.4849 6.9986 14.8602 6.55165 15.2389C7.18463 12.6296 6.55165 8.51611 6.33492 7.34575L6.33515 7.34551C6.32571 7.28957 6.28369 7.24515 6.22891 7.23386C6.17438 7.22234 6.11842 7.24611 6.08797 7.29389C3.92865 10.6328 5.15732 14.9903 5.53622 16.1269H5.53646C3.85691 17.646 2.28361 19.2829 0.828352 21.0251C0.787981 21.0756 0.779481 21.1454 0.807104 21.2043C0.83449 21.2631 0.893043 21.3005 0.957024 21.3005H2.68662C2.73643 21.3005 2.78365 21.2777 2.81529 21.2386C4.00449 19.7417 5.26876 18.3078 6.60242 16.9425C8.72396 18.1575 11.1271 18.771 13.5614 18.7188C13.6169 18.7167 13.6655 18.6806 13.6842 18.6276C13.7028 18.5743 13.6877 18.515 13.6462 18.4778C12.9048 17.8204 10.5323 15.9511 7.55387 15.9994C7.99395 15.5724 8.45079 15.1458 8.92464 14.7258C9.84187 15.3626 12.6985 17.2042 15.2738 17.2902C15.3087 17.2919 15.3404 17.2698 15.3515 17.2362C15.3623 17.2026 15.3501 17.1656 15.3213 17.1456C14.7334 16.7876 14.1998 16.3449 13.7373 15.8308C12.8272 14.5853 11.3731 13.8749 9.84841 13.9306C10.187 13.6415 10.5491 13.3591 10.9045 13.0907C11.6829 13.6861 14.4751 15.6963 16.7293 15.6723C16.7576 15.6721 16.7824 15.6529 16.7902 15.625C16.798 15.5972 16.7869 15.5676 16.7631 15.552C16.2883 15.2147 15.8778 14.7926 15.5514 14.3059C14.7301 13.1742 13.4932 12.4292 12.1229 12.2404C12.4615 12.0166 12.7998 11.8068 13.1383 11.614C13.7644 12.1785 15.9204 13.9479 18.4284 14.0235H18.4282C18.4516 14.0245 18.4726 14.0091 18.4789 13.9863C18.4853 13.9635 18.4756 13.939 18.4553 13.9272C18.1092 13.6993 17.7997 13.4184 17.5381 13.0943C17.1016 12.5331 16.394 11.6279 14.1197 11.0874C14.3364 10.9842 14.5529 10.8879 14.7661 10.8017L15.1351 10.6538C15.7544 11.2356 17.4503 12.5435 20.3102 12.6847C20.3102 12.6847 20.3305 12.6847 20.3102 12.6606L20.31 12.6604C19.8194 12.3435 19.376 11.9562 18.9936 11.5108C18.2874 10.7938 17.387 10.3071 16.4077 10.1133L17.0439 9.83458C17.8122 10.2545 19.9514 11.3422 21.5016 11.2836C21.5221 11.281 21.5391 11.2659 21.5443 11.2454C21.5495 11.2248 21.5419 11.2032 21.5252 11.1907C21.2331 11.0037 20.9588 10.7895 20.7062 10.5503C19.971 9.88764 19.05 9.47587 18.0728 9.37334L18.9121 8.97404C19.5213 9.31836 21.2813 10.2579 22.9297 10.2408V10.2406C22.9647 10.2404 22.9947 10.2154 23.002 10.1808C23.0093 10.146 22.9921 10.1109 22.9602 10.096C22.6474 9.93253 22.3464 9.74621 22.0599 9.53851C21.3451 9.023 20.5091 8.70845 19.6364 8.62632C19.9512 8.46449 20.2659 8.30626 20.574 8.14443C21.6734 8.83908 22.9387 9.21508 24.2329 9.23211C24.2478 9.23211 24.2598 9.21962 24.2598 9.20449C24.2598 9.18937 24.2478 9.17688 24.2329 9.17688C23.9716 9.0537 23.7175 8.91588 23.4713 8.76389C22.7981 8.306 22.0528 7.96843 21.2678 7.76577L21.7754 7.4834H21.7757C22.9346 8.08007 24.2494 8.28967 25.5326 8.08247C25.5432 8.07839 25.5503 8.06806 25.5503 8.05654C25.5503 8.04501 25.5432 8.03469 25.5326 8.03085C25.1874 7.98258 24.855 7.86565 24.5544 7.68653C23.9373 7.2925 23.225 7.08049 22.4964 7.07376L23.2715 6.60915C24.2874 7.12635 25.4433 7.28628 26.5581 7.06344V7.03582C26.17 6.94722 25.7955 6.80604 25.4444 6.61587C24.9338 6.37168 24.3738 6.25379 23.8097 6.27179C24.0399 6.12389 24.2666 5.97574 24.4866 5.82423C25.3802 6.15126 26.3397 6.24706 27.2788 6.103C26.9419 6.05858 26.6135 5.9635 26.304 5.82088C25.8927 5.61318 25.443 5.49601 24.984 5.47656L25.4104 5.16681C25.8708 5.27006 27.1027 5.49048 27.8542 5.07053C27.8629 5.06549 27.8681 5.05636 27.8681 5.04628C27.8681 5.03619 27.8629 5.02707 27.8542 5.02227C27.5893 5.01194 27.3272 4.96344 27.0758 4.87772C26.6794 4.78504 26.2698 4.76871 25.8675 4.82946C26.0198 4.70892 26.1688 4.59199 26.3142 4.48514C27.0262 4.62872 27.765 4.52571 28.4128 4.19268V4.16171C28.1345 4.17035 27.8561 4.15667 27.5802 4.12041C27.315 4.07575 27.0449 4.06879 26.7779 4.09976L27.1165 3.80707C27.7407 3.91056 28.38 3.76361 28.9002 3.39744C28.9075 3.39432 28.9125 3.38687 28.9125 3.37847C28.9125 3.37031 28.9075 3.36286 28.9002 3.35974C28.7689 3.37871 28.6355 3.37871 28.5043 3.35974C28.2044 3.28195 27.8902 3.28195 27.5904 3.35974L27.8713 3.07401C28.365 3.11459 28.8537 2.9494 29.225 2.61612C29.234 2.60652 29.2356 2.59211 29.2295 2.58059C29.2236 2.56882 29.2109 2.56234 29.1981 2.5645C29.0513 2.60532 28.8999 2.62717 28.7479 2.62981C28.5607 2.63197 28.3744 2.65622 28.1928 2.70209L28.3824 2.47494C28.8142 2.49535 29.2319 2.31407 29.5161 1.98272C29.527 1.96927 29.5275 1.94982 29.5168 1.9359C29.5065 1.92197 29.488 1.91717 29.4722 1.92413C29.3499 1.98224 29.2198 2.02161 29.0864 2.0413C28.946 2.05187 28.8067 2.07492 28.67 2.11021C28.7139 2.0449 28.7613 1.98296 28.802 1.92101C29.523 1.79351 29.7395 0.736763 29.7903 0.378773L29.7903 0.378924Z" fill="white"/>
</svg>
