<svg width="30" height="30" viewBox="0 0 30 30" fill="none" xmlns="http://www.w3.org/2000/svg">
<path d="M10 10L20 20" stroke="white"/>
<path d="M16.5039 10.9336C16.7188 11.0312 16.875 11.2656 16.875 11.5V19C16.875 19.2539 16.7188 19.4688 16.5039 19.5859C16.2695 19.6836 16.0156 19.6445 15.8203 19.4688L13.1836 17.125H11.875C11.1719 17.125 10.625 16.5781 10.625 15.875V14.625C10.625 13.9414 11.1719 13.375 11.875 13.375H13.1836L15.8203 11.0508C16.0156 10.875 16.2695 10.8359 16.5039 10.9336ZM18.6719 13.8047C19.1016 14.1562 19.375 14.6641 19.375 15.25C19.375 15.8555 19.1016 16.3633 18.6719 16.7148C18.4766 16.8711 18.1836 16.8516 18.0078 16.6367C17.8516 16.4414 17.8906 16.1484 18.0859 15.9922C18.3008 15.8164 18.4375 15.543 18.4375 15.25C18.4375 14.957 18.3008 14.7031 18.0859 14.5273C17.8906 14.3711 17.8516 14.0781 18.0078 13.8633C18.1836 13.668 18.4766 13.6484 18.6719 13.8047Z" fill="white"/>
<circle cx="15" cy="15" r="14.5" stroke="#D9D9D9"/>
</svg>
