<svg width="9" height="10" viewBox="0 0 9 10" fill="none" xmlns="http://www.w3.org/2000/svg">
<path d="M6.00391 0.933664C6.21875 1.03132 6.375 1.26569 6.375 1.50007V9.00007C6.375 9.25398 6.21875 9.46882 6.00391 9.58601C5.76953 9.68366 5.51562 9.6446 5.32031 9.46882L2.68359 7.12507H1.375C0.671875 7.12507 0.125 6.57819 0.125 5.87507V4.62507C0.125 3.94148 0.671875 3.37507 1.375 3.37507H2.68359L5.32031 1.05085C5.51562 0.87507 5.76953 0.836007 6.00391 0.933664ZM8.17188 3.80476C8.60156 4.15632 8.875 4.66413 8.875 5.25007C8.875 5.85554 8.60156 6.36335 8.17188 6.71491C7.97656 6.87116 7.68359 6.85163 7.50781 6.63679C7.35156 6.44148 7.39062 6.14851 7.58594 5.99226C7.80078 5.81648 7.9375 5.54304 7.9375 5.25007C7.9375 4.9571 7.80078 4.70319 7.58594 4.52741C7.39062 4.37116 7.35156 4.07819 7.50781 3.86335C7.68359 3.66804 7.97656 3.64851 8.17188 3.80476Z" fill="white"/>
</svg>
